<svg id="Group_265" data-name="Group 265" xmlns="http://www.w3.org/2000/svg" width="34.48" height="34.48" viewBox="0 0 34.48 34.48">
  <path id="Path_116" data-name="Path 116" d="M.472.466a1.606,1.606,0,0,1,2.263,0L10.642,8.4a1.6,1.6,0,0,1,.05,2.2L2.9,18.419A1.6,1.6,0,1,1,.638,16.165L7.261,9.443.472,2.721A1.581,1.581,0,0,1,.472.466Z" transform="translate(21.467 26.691) rotate(180)" fill="#fff"/>
  <path id="Path_117" data-name="Path 117" d="M0,17.24A17.24,17.24,0,1,0,17.24,0,17.237,17.237,0,0,0,0,17.24Zm2.652,0a14.582,14.582,0,0,1,24.9-10.311A14.582,14.582,0,1,1,6.929,27.551,14.462,14.462,0,0,1,2.652,17.24Z" transform="translate(34.48 34.48) rotate(180)" fill="#fff"/>
</svg>
