<svg xmlns="http://www.w3.org/2000/svg" width="111.562" height="112.463" viewBox="0 0 111.562 112.463">
  <g id="Group_23" data-name="Group 23" transform="translate(-1194.575 -217.48)">
    <path id="Path_52" data-name="Path 52" d="M1306.1,273.31a53.727,53.727,0,0,1-6.593,27.222,55.5,55.5,0,0,1-54.019,29.222A52.3,52.3,0,0,1,1226,324.383a55.664,55.664,0,0,1-17.572-13.479,54.769,54.769,0,0,1-10.95-19.035,57.037,57.037,0,0,1-2.583-11.912,64.645,64.645,0,0,1-.146-11.235,53.6,53.6,0,0,1,4.224-17.068,55.976,55.976,0,0,1,41.465-33.306,57.018,57.018,0,0,1,14.778-.674,53.979,53.979,0,0,1,23.126,7.343,55.585,55.585,0,0,1,13.867,11.379,53.671,53.671,0,0,1,10.648,17.994A51.009,51.009,0,0,1,1306.1,273.31Zm-4.561.38c-.269-28.742-22.816-50.925-49.932-51.457a51.5,51.5,0,0,0-2.242,102.968C1278.651,325.681,1301.38,302.105,1301.539,273.69Z" transform="translate(0)" fill="#f6f5f6"/>
    <path id="Path_53" data-name="Path 53" d="M1319.065,286.92c2.014,1.259,4.33,1.607,6.58,2.1a76.627,76.627,0,0,0,17.333,1.643,2.9,2.9,0,0,1,2.171.8c1.927,1.8,3.976,3.487,5.294,5.831.119.212.534.51.154.788a.905.905,0,0,1-.758.027c-2.477-1.088-5.136-1.1-7.751-1.295-5.175-.391-10.354-.677-15.329-2.381a33.551,33.551,0,0,1-10.867-5.953,4.655,4.655,0,0,0-.478-.307,1.913,1.913,0,0,0,.609,1.193c3.114,3.391,7.085,5.381,11.331,6.914a46.436,46.436,0,0,0,6.71,1.867c.558.111.879.28.884.924a25,25,0,0,0,.607,6.387c.216.8-.457.457-.756.405a32.5,32.5,0,0,1-8.026-2.545,42.828,42.828,0,0,1-11.385-7.719c-.255-.238-.409-.737-1.056-.511a9.483,9.483,0,0,0,2.121,2.987,33.071,33.071,0,0,0,9.4,6.812,1.514,1.514,0,0,1,.955,1.884,24.278,24.278,0,0,0-.392,3.464c-.036,1.187-.533,1.245-1.528.988-6.719-1.739-11.849-5.491-15.064-11.72-.116-.225-.159-.534-.614-.534a11.192,11.192,0,0,0,1.5,4.187,21.4,21.4,0,0,0,4.753,5.772c.775.676,1.135,1.238.53,2.246a11.31,11.31,0,0,0-.978,2.486c-.287.925-.744.893-1.463.46a15.638,15.638,0,0,1-4.105-3.619,30.563,30.563,0,0,1-4.228-7.126c-.168-.388-.2-.861-.821-1.184a14.614,14.614,0,0,0,2.791,8.293,1.27,1.27,0,0,1-.154,1.994,22,22,0,0,0-2.171,2.555c-.669.937-1.137.727-1.706-.062a23.182,23.182,0,0,1-3.9-8.46c-.061-.268.038-.632-.467-.855-.411,3.07-.316,6,1.325,8.666.6.981.323,1.265-.667,1.283-2.192.041-4.385.034-6.575.121-1.005.04-1.191-.307-1.062-1.26.75-5.526,3.443-10.086,6.957-14.252.141-.167.352-.436.5-.415,1.583.228,2.107-1.133,2.931-1.971,1.631-1.658,3.115-3.464,4.785-5.079a2.463,2.463,0,0,0,.761-3.048c-.385-.918-.628-1.834.829-2.08.5-.085.574-.62.792-1a6.96,6.96,0,0,0-.266-8.06c-.807-1.127-.177-2.208.063-3.56-.833.46-1.467.815-2.106,1.161-.478.259-.408.611-.217,1.022.377.808.68,1.655,1.106,2.437a4.922,4.922,0,0,1,.437,4.536c-.487,1.2-.713,2.378-2.259,2.584-.663.088-.771.6-.506,1.106,1.256,2.422.126,4.037-1.7,5.544a37.268,37.268,0,0,0-3.029,3.043c-.5.525-.977,1.05-1.819.906a.536.536,0,0,0-.665.294c-.547,1.258-1.691,2.049-2.472,3.125-.45.62-.8.58-1.153-.1-.206-.392-.528-.721-.774-1.094-.3-.457-.609-.646-1.032-.134-.706.856-.979.445-1.1-.384a2.22,2.22,0,0,0-2.684-2.183c-.8.075-.963-.349-.59-.983a4.563,4.563,0,0,0-.02-4.8c-.357-.658-.166-.973.634-.947,1.7.057,3.4.074,5.1.07.411,0,1.081.293,1.054-.553-.021-.626-.219-1.11-.994-1.172-2.006-.16-4.006-.429-6.014-.532a2.066,2.066,0,0,1-2.065-1.324c-.6-1.343-1.324-2.631-2.026-3.926a3.552,3.552,0,0,1,1.354-4.738c2.489-1.416,5.108-2.569,7.7-3.783a2.6,2.6,0,0,0,1.381-1.313c.568-1.171,1.906-1.718,2.78-2.668a5.451,5.451,0,0,1,5.455-1.987c.876.191,1.119-.288,1.33-1.041,1.249-4.477,3.628-8.136,7.786-10.456.186-.1.385-.187.553-.267.422.259.214.6.238.882.023.254,0,.511,0,1.024,2.654-2.084,5.327-3.581,8.783-3.405a14.147,14.147,0,0,0-1.559,2.374c3.481-.606,6.826-1.182,10.3-.325-1.243,1.8-3.4,1.248-5,2.234a1.512,1.512,0,0,0,1.365.2,20.537,20.537,0,0,1,10.592.291c.32.095.8.022.846.479.036.391-.452.357-.679.55-1.81,1.536-4.075,1.381-6.223,1.662a1.606,1.606,0,0,0-1.514.713,22.144,22.144,0,0,1,5,.093,19.953,19.953,0,0,1,10.1,3.966c.62.483.791.708-.057,1.166a6.788,6.788,0,0,1-4.651,1.138,13.25,13.25,0,0,0-5.727.237c-.357-.082-.726.154-.681.391.076.4.447.264.724.1l3.8-.034c.074.122.16.126.256.023a14.194,14.194,0,0,1,9.146,5.086,17.733,17.733,0,0,1,2.309,4.061c.1.243.3.507.123.742-.193.255-.5.076-.75.028a62.877,62.877,0,0,0-20.554-.456,24.309,24.309,0,0,0-7.111,1.637c-.2-.24-.375-.016-.554.038-.039.012-.053.108-.079.165.2.01.421.092.591-.1a3.345,3.345,0,0,0,1.809-.155l-.006.047.017-.04c4.49-.45,9-.616,13.5-.918,6.879-.462,10.94,3.06,13.7,8.927-1.822-.2-3.6-.5-5.39-.56-5.625-.191-11.254-.3-16.882-.423a39.871,39.871,0,0,1-9.228-1.486c-.136-.335-.408-.346-.729-.3A.505.505,0,0,0,1319.065,286.92Zm-6.169-20.38a19.772,19.772,0,0,1-1,5.963c-.119.34-.685.755-.241,1.025a1.365,1.365,0,0,0,1.622-.144,3.427,3.427,0,0,0,.663-.99,12.474,12.474,0,0,0,.823-8.1c-.157-.837-.59-.952-1.223-.583a15.934,15.934,0,0,0-5.054,4.7c-.18.257-.417.559-.14.835.31.309.56-.06.795-.214C1310.326,268.262,1311.495,267.474,1312.9,266.539Zm-13.751,8.219-.094-.259c-1.217.369-2.419.8-3.656,1.086-1.074.245-.981.634-.339,1.272a3.513,3.513,0,0,1,.563.739c.331.577.6.484.986.025C1297.425,276.645,1298.3,275.71,1299.145,274.758Zm-12.266,9.469c.451-1.085.811-1.928,1.149-2.778.178-.447.116-.622-.466-.535-1.995.3-2.133.513-1.246,2.3C1286.449,283.474,1286.6,283.728,1286.88,284.228Zm27.9,10.722c-.323-.281-.432-.445-.575-.486-.254-.073-.279.157-.207.3a.733.733,0,0,0,.369.3C1314.455,295.1,1314.59,295.009,1314.784,294.95Z" transform="translate(-65.304 -27.393)" fill="#f6f5f6"/>
    <path id="Path_54" data-name="Path 54" d="M1312.321,499.153c-.884.585-1.3,1.791-2.087,1.681-.636-.089-1.146-1.092-1.96-1.953a28.459,28.459,0,0,0,.022,3.149c.144,1.163-.6.912-1.24.939-.712.03-1.253.078-1.209-.993.1-2.367.018-4.74.045-7.11,0-.34-.271-.845.295-1.014.5-.151.808.175,1.119.532.964,1.107,1.959,2.188,3,3.341,1.038-1.142,2.031-2.228,3.016-3.32.3-.337.61-.721,1.12-.547.537.184.261.687.265,1.031.027,2.37-.057,4.744.046,7.11.048,1.1-.531.984-1.217.971-.663-.012-1.375.173-1.233-.962A24.464,24.464,0,0,0,1312.321,499.153Z" transform="translate(-81.38 -202.135)" fill="#f6f5f6"/>
    <path id="Path_55" data-name="Path 55" d="M1422.838,502.817c-1.88.563-3.124.028-3.733-1.781a.96.96,0,0,0-1.216-.751c-.73.19-.4.833-.349,1.205.16,1.245-.318,1.6-1.519,1.5-.735-.057-.876-.295-.867-.956.033-2.414.04-4.829,0-7.243-.013-.748.188-1.028.965-.982,1.069.063,2.146-.015,3.218.023a3.16,3.16,0,0,1,2.571,4.947,1.642,1.642,0,0,0-.014,2.284A4.57,4.57,0,0,1,1422.838,502.817Zm-5.3-5.8c-.181.834.047,1.2,1,1.157.873-.039,1.551-.18,1.542-1.177-.009-.949-.693-1.042-1.495-1.07C1417.723,495.9,1417.305,496.111,1417.535,497.021Z" transform="translate(-161.348 -202.131)" fill="#f6f5f6"/>
    <path id="Path_56" data-name="Path 56" d="M1443.877,549.347c0-1.208.031-2.417-.012-3.623-.023-.656.1-.974.862-.919.979.071,1.968,0,2.951.021a2.734,2.734,0,0,1,2.606,3.886c-.152.389-.316.627.071,1.026a2.316,2.316,0,0,1,.251,2.739,2.372,2.372,0,0,1-2.34,1.475c-1.163,0-2.33-.055-3.488.02-.829.054-.945-.3-.916-1C1443.913,551.764,1443.877,550.554,1443.877,549.347Zm3.388,2.485c.527-.069,1.314.247,1.264-.683-.044-.817-.758-.718-1.318-.676-.446.034-1.1-.308-1.113.637C1446.081,552.141,1446.8,551.731,1447.265,551.832Zm-.278-3.336c.672,0,1.217-.081,1.191-.826-.027-.767-.611-.719-1.158-.725-.517-.005-.931-.034-.928.727C1446.1,548.452,1446.471,548.566,1446.987,548.5Z" transform="translate(-182.349 -239.43)" fill="#f6f5f6"/>
    <path id="Path_57" data-name="Path 57" d="M1348.855,497.9c0-.312-.017-.625,0-.936.075-1.142-.459-3.028.2-3.283a8.157,8.157,0,0,1,4.964-.026c1.485.411,2.249,2,2.033,3.772a3.139,3.139,0,0,1-2.781,2.949,3.945,3.945,0,0,1-1.066.019c-.818-.118-1.181.176-1.009,1.009.222,1.073-.315,1.186-1.239,1.209-1.014.025-1.176-.369-1.124-1.241C1348.907,500.218,1348.855,499.056,1348.855,497.9Zm2.343-1.15c.024.832-.293,1.648,1.018,1.566,1.01-.063,1.524-.432,1.555-1.385s-.439-1.347-1.478-1.4C1351.091,495.464,1351.1,496.068,1351.2,496.749Z" transform="translate(-112.759 -201.745)" fill="#f6f5f6"/>
    <path id="Path_58" data-name="Path 58" d="M1384.172,498.272c0-1.2.031-2.411-.013-3.614-.023-.643.188-.856.833-.836,1.382.042,2.768.057,4.148,0,.838-.037.826.43.789,1-.035.538.215,1.237-.78,1.151-.576-.05-1.16,0-1.739-.012-.513-.013-.932-.066-.922.718.01.848.542.622.985.644a6.69,6.69,0,0,0,.937,0c.789-.071,1.306-.036,1.3,1.064-.01,1.074-.493,1.15-1.3,1.075-.4-.037-.8.018-1.2-.012-.5-.038-.7.115-.708.66-.013.6.193.788.767.739.487-.042.992.057,1.47-.021,1.143-.188,1.315.379,1.278,1.35-.026.669-.248.876-.857.792-.044-.006-.089,0-.134,0-1.585-.1-3.184.2-4.76-.167v-4.528Z" transform="translate(-138.678 -202.137)" fill="#f6f5f6"/>
    <path id="Path_59" data-name="Path 59" d="M1407.769,548.291a14.491,14.491,0,0,0-.019-2.142c-.185-1.221.3-1.535,1.448-1.426.627.06.841.194.823.84-.043,1.608,0,3.218-.021,4.827-.014.923.222,1.625,1.292,1.623,1.049,0,1.335-.663,1.317-1.607-.03-1.609.056-3.222-.03-4.826-.059-1.1.65-.789,1.211-.829.608-.043,1.113-.09,1.072.842-.078,1.785.024,3.576-.036,5.362-.068,2.043-1.477,3.232-3.658,3.2a3.181,3.181,0,0,1-3.4-3.313C1407.76,549.99,1407.769,549.141,1407.769,548.291Z" transform="translate(-155.907 -239.36)" fill="#f6f5f6"/>
    <path id="Path_60" data-name="Path 60" d="M1338.932,549.25a4.09,4.09,0,0,1,2.974-3.747,4.393,4.393,0,0,1,4.9,1.474c.325.476.83,1.259.426,1.5a1.641,1.641,0,0,1-2.174-.229,1.971,1.971,0,0,0-2.828-.561,2.7,2.7,0,0,0-.716,3.271,1.933,1.933,0,0,0,3.436.43c.646-.888,1.449-.55,2.175-.487.552.048.193.587.105.871-.769,2.491-4.406,3.393-6.616,1.653C1339.447,552.507,1338.914,551.285,1338.932,549.25Z" transform="translate(-105.595 -239.784)" fill="#f6f5f6"/>
    <path id="Path_61" data-name="Path 61" d="M1470.7,502.886c-1.525.27-1.647-.117-1.118-1.181,1.146-2.3,2.167-4.67,3.251-7.005.2-.422.3-.917.984-.891.626.023.681.477.859.859,1.065,2.295,2.142,4.585,3.164,6.9.18.408.887,1.065.235,1.3a1.873,1.873,0,0,1-2.2-.267c-.834-1-3.475-1.065-4.181-.016C1471.308,503.158,1470.831,502.849,1470.7,502.886Zm3.071-5.22-.927,2.146a3.929,3.929,0,0,0,1.847,0Z" transform="translate(-200.958 -202.13)" fill="#f6f5f6"/>
    <path id="Path_62" data-name="Path 62" d="M1450.673,502.8a4.388,4.388,0,0,1-1.067-.017c-.426-.11-1.246.446-1.2-.51.027-.553-.581-1.561.745-1.56.489,0,.377-.4.379-.687q.013-1.808,0-3.616c0-.24.106-.617-.273-.634-1.373-.058-.769-1.107-.75-1.68.03-.887.835-.325,1.273-.4a5.907,5.907,0,0,1,1.867,0c.442.065,1.241-.437,1.264.449.014.557.568,1.533-.7,1.628-.369.028-.331.357-.332.617q-.006,1.875,0,3.75c0,.212-.034.525.25.536,1.415.055.917,1.161.811,1.758-.138.781-.963.234-1.469.36A3.389,3.389,0,0,1,1450.673,502.8Z" transform="translate(-185.59 -201.975)" fill="#f6f5f6"/>
    <path id="Path_63" data-name="Path 63" d="M1508.964,498.341c0-1.249.049-2.5-.014-3.746s.832-.711,1.372-.793c.6-.092,1.1-.1,1.061.828-.078,1.736.013,3.479-.039,5.217-.023.746.181,1.063.952.956.35-.048.722.045,1.068-.018,1.214-.219,1.4.4,1.333,1.425-.04.61-.248.734-.793.723-1.382-.03-2.766-.043-4.147,0-.671.023-.824-.233-.8-.85C1508.993,500.839,1508.964,499.589,1508.964,498.341Z" transform="translate(-229.96 -202.093)" fill="#f6f5f6"/>
    <path id="Path_64" data-name="Path 64" d="M1378.482,549.252c0-1.284,0-2.265,0-3.247,0-1.44.611-1.865,2.014-1.5.563.147.37.531.373.832.019,1.739.042,3.48-.006,5.218-.02.723.141,1.086.935.972.35-.05.721.042,1.068-.018,1.18-.2,1.438.35,1.348,1.41-.05.585-.213.807-.777.728a1.111,1.111,0,0,0-.134,0c-1.555-.024-3.594.539-4.531-.234C1377.793,552.608,1378.627,550.488,1378.482,549.252Z" transform="translate(-134.384 -239.125)" fill="#f6f5f6"/>
    <path id="Path_65" data-name="Path 65" d="M1278.937,494.822c.4,0,.8-.008,1.207,0,.347.01.794-.061.826.443.029.463.282,1.2-.236,1.333-.994.261-.764.937-.777,1.565-.016.76-.007,1.52,0,2.28,0,.484-.074.938.642,1.1.744.173.393.889.4,1.367,0,.611-.53.481-.905.489-.8.017-1.61.018-2.414,0-.374-.009-.917.129-.93-.468-.011-.509-.38-1.233.505-1.428.555-.122.524-.524.525-.928,0-.984.006-1.967,0-2.95,0-.3.082-.738-.291-.808-1.031-.193-.816-.969-.7-1.56.154-.768.88-.339,1.352-.433A4.081,4.081,0,0,1,1278.937,494.822Z" transform="translate(-60.043 -202.852)" fill="#f6f5f6"/>
  </g>
</svg>
